<mxfile host="app.diagrams.net" modified="2024-01-29T06:55:42.879Z" agent="Mozilla/5.0 (Windows NT 10.0; Win64; x64) AppleWebKit/537.36 (KHTML, like Gecko) Chrome/120.0.0.0 Safari/537.36" etag="qvOV5CBGK6XkjptitsOJ" version="23.0.2" type="github">
  <diagram name="Halaman-1" id="0globqxK3H_xwFuX5NHq">
    <mxGraphModel dx="1600" dy="669" grid="1" gridSize="10" guides="1" tooltips="1" connect="1" arrows="1" fold="1" page="1" pageScale="1" pageWidth="850" pageHeight="1100" math="0" shadow="0">
      <root>
        <mxCell id="0" />
        <mxCell id="1" parent="0" />
        <mxCell id="9zCkISg8AlNWu-vzNWMw-1" value="" style="rounded=0;whiteSpace=wrap;html=1;" vertex="1" parent="1">
          <mxGeometry x="70" y="110" width="690" height="490" as="geometry" />
        </mxCell>
        <mxCell id="9zCkISg8AlNWu-vzNWMw-4" style="edgeStyle=orthogonalEdgeStyle;rounded=0;orthogonalLoop=1;jettySize=auto;html=1;exitX=1;exitY=0.5;exitDx=0;exitDy=0;entryX=0;entryY=0.5;entryDx=0;entryDy=0;" edge="1" parent="1" source="9zCkISg8AlNWu-vzNWMw-2" target="9zCkISg8AlNWu-vzNWMw-3">
          <mxGeometry relative="1" as="geometry" />
        </mxCell>
        <mxCell id="9zCkISg8AlNWu-vzNWMw-2" value="&lt;font style=&quot;font-size: 14px;&quot;&gt;User&lt;/font&gt;" style="rounded=1;whiteSpace=wrap;html=1;" vertex="1" parent="1">
          <mxGeometry x="80" y="332.5" width="90" height="45" as="geometry" />
        </mxCell>
        <mxCell id="9zCkISg8AlNWu-vzNWMw-6" style="edgeStyle=orthogonalEdgeStyle;rounded=0;orthogonalLoop=1;jettySize=auto;html=1;exitX=1;exitY=0.5;exitDx=0;exitDy=0;entryX=0;entryY=0.5;entryDx=0;entryDy=0;" edge="1" parent="1" source="9zCkISg8AlNWu-vzNWMw-3" target="9zCkISg8AlNWu-vzNWMw-5">
          <mxGeometry relative="1" as="geometry" />
        </mxCell>
        <mxCell id="9zCkISg8AlNWu-vzNWMw-3" value="&lt;font style=&quot;font-size: 14px;&quot;&gt;Daftar/Login&lt;/font&gt;" style="rounded=1;whiteSpace=wrap;html=1;" vertex="1" parent="1">
          <mxGeometry x="240" y="260" width="90" height="45" as="geometry" />
        </mxCell>
        <mxCell id="9zCkISg8AlNWu-vzNWMw-8" style="edgeStyle=orthogonalEdgeStyle;rounded=0;orthogonalLoop=1;jettySize=auto;html=1;exitX=1;exitY=0.5;exitDx=0;exitDy=0;entryX=0;entryY=0.5;entryDx=0;entryDy=0;" edge="1" parent="1" source="9zCkISg8AlNWu-vzNWMw-5" target="9zCkISg8AlNWu-vzNWMw-7">
          <mxGeometry relative="1" as="geometry" />
        </mxCell>
        <mxCell id="9zCkISg8AlNWu-vzNWMw-5" value="&lt;span style=&quot;font-size: 14px;&quot;&gt;Masuk&lt;/span&gt;" style="rounded=1;whiteSpace=wrap;html=1;" vertex="1" parent="1">
          <mxGeometry x="380" y="260" width="90" height="45" as="geometry" />
        </mxCell>
        <mxCell id="9zCkISg8AlNWu-vzNWMw-10" style="edgeStyle=orthogonalEdgeStyle;rounded=0;orthogonalLoop=1;jettySize=auto;html=1;exitX=1;exitY=0.5;exitDx=0;exitDy=0;entryX=0;entryY=0.5;entryDx=0;entryDy=0;" edge="1" parent="1" source="9zCkISg8AlNWu-vzNWMw-7" target="9zCkISg8AlNWu-vzNWMw-9">
          <mxGeometry relative="1" as="geometry" />
        </mxCell>
        <mxCell id="9zCkISg8AlNWu-vzNWMw-7" value="&lt;span style=&quot;font-size: 14px;&quot;&gt;Daftar Pengunjung&lt;/span&gt;" style="rounded=1;whiteSpace=wrap;html=1;" vertex="1" parent="1">
          <mxGeometry x="510" y="260" width="90" height="45" as="geometry" />
        </mxCell>
        <mxCell id="9zCkISg8AlNWu-vzNWMw-13" style="edgeStyle=orthogonalEdgeStyle;rounded=0;orthogonalLoop=1;jettySize=auto;html=1;exitX=0.5;exitY=1;exitDx=0;exitDy=0;entryX=0.5;entryY=0;entryDx=0;entryDy=0;" edge="1" parent="1" source="9zCkISg8AlNWu-vzNWMw-9" target="9zCkISg8AlNWu-vzNWMw-12">
          <mxGeometry relative="1" as="geometry" />
        </mxCell>
        <mxCell id="9zCkISg8AlNWu-vzNWMw-9" value="&lt;span style=&quot;font-size: 14px;&quot;&gt;isi form pengunjung&lt;/span&gt;" style="rounded=1;whiteSpace=wrap;html=1;" vertex="1" parent="1">
          <mxGeometry x="620" y="260" width="90" height="45" as="geometry" />
        </mxCell>
        <mxCell id="9zCkISg8AlNWu-vzNWMw-15" style="edgeStyle=orthogonalEdgeStyle;rounded=0;orthogonalLoop=1;jettySize=auto;html=1;exitX=1;exitY=0.5;exitDx=0;exitDy=0;entryX=0;entryY=0.5;entryDx=0;entryDy=0;" edge="1" parent="1" source="9zCkISg8AlNWu-vzNWMw-12" target="9zCkISg8AlNWu-vzNWMw-14">
          <mxGeometry relative="1" as="geometry" />
        </mxCell>
        <mxCell id="9zCkISg8AlNWu-vzNWMw-12" value="&lt;span style=&quot;font-size: 14px;&quot;&gt;Kirim&lt;br&gt;&lt;/span&gt;" style="rounded=1;whiteSpace=wrap;html=1;" vertex="1" parent="1">
          <mxGeometry x="240" y="350" width="90" height="45" as="geometry" />
        </mxCell>
        <mxCell id="9zCkISg8AlNWu-vzNWMw-17" style="edgeStyle=orthogonalEdgeStyle;rounded=0;orthogonalLoop=1;jettySize=auto;html=1;exitX=1;exitY=0.5;exitDx=0;exitDy=0;entryX=0;entryY=0.5;entryDx=0;entryDy=0;" edge="1" parent="1" source="9zCkISg8AlNWu-vzNWMw-14" target="9zCkISg8AlNWu-vzNWMw-16">
          <mxGeometry relative="1" as="geometry" />
        </mxCell>
        <mxCell id="9zCkISg8AlNWu-vzNWMw-14" value="&lt;span style=&quot;font-size: 14px;&quot;&gt;Mencari buku&lt;br&gt;&lt;/span&gt;" style="rounded=1;whiteSpace=wrap;html=1;" vertex="1" parent="1">
          <mxGeometry x="370" y="350" width="90" height="45" as="geometry" />
        </mxCell>
        <mxCell id="9zCkISg8AlNWu-vzNWMw-19" style="edgeStyle=orthogonalEdgeStyle;rounded=0;orthogonalLoop=1;jettySize=auto;html=1;exitX=0.5;exitY=1;exitDx=0;exitDy=0;entryX=0.5;entryY=0;entryDx=0;entryDy=0;" edge="1" parent="1" source="9zCkISg8AlNWu-vzNWMw-16" target="9zCkISg8AlNWu-vzNWMw-18">
          <mxGeometry relative="1" as="geometry" />
        </mxCell>
        <mxCell id="9zCkISg8AlNWu-vzNWMw-16" value="&lt;span style=&quot;font-size: 14px;&quot;&gt;Mencari buku dengan kata kunci Judul/Penerbit&lt;br&gt;&lt;/span&gt;" style="rounded=1;whiteSpace=wrap;html=1;" vertex="1" parent="1">
          <mxGeometry x="500" y="342.5" width="120" height="60" as="geometry" />
        </mxCell>
        <mxCell id="9zCkISg8AlNWu-vzNWMw-18" value="&lt;span style=&quot;font-size: 14px;&quot;&gt;Hasil Pencarian&lt;br&gt;&lt;/span&gt;" style="rounded=1;whiteSpace=wrap;html=1;" vertex="1" parent="1">
          <mxGeometry x="240" y="450" width="90" height="45" as="geometry" />
        </mxCell>
        <mxCell id="9zCkISg8AlNWu-vzNWMw-20" value="&lt;span style=&quot;font-size: 14px;&quot;&gt;Rincian Buku&lt;br&gt;&lt;/span&gt;" style="rounded=1;whiteSpace=wrap;html=1;" vertex="1" parent="1">
          <mxGeometry x="370" y="450" width="90" height="45" as="geometry" />
        </mxCell>
      </root>
    </mxGraphModel>
  </diagram>
</mxfile>
